<svg xmlns="http://www.w3.org/2000/svg" viewBox="0 0 371.86783 366.52408"><defs><style>.cls-1{fill:#ff5691;}.cls-2{fill:#56b8f4;}.cls-3{fill:#009fef;}</style></defs><g id="Colour_Logos" data-name="Colour Logos"><circle class="cls-1" cx="186.37391" cy="60.08928" r="60.08949" transform="translate(-2.53145 8.50712) rotate(-2.5972)"/><path class="cls-2" d="M166.55019,172.35127c-44.295-44.295-116.77774-44.295-161.07276,0H5.47728a18.70093,18.70093,0,0,0,0,26.44692L92.17412,285.495l93.7598-93.7601Z"/><path class="cls-2" d="M185.93392,366.52354a31.06646,31.06646,0,0,0,22.22231-9.12447l71.72087-71.7208-.18338-.18324-71.90426,71.904A31.06347,31.06347,0,0,1,185.93392,366.52354Z"/><path class="cls-2" d="M366.39056,172.35127h-.00016a113.89537,113.89537,0,0,0-161.07275,0l-19.38373,19.38366,93.7598,93.7601,86.69684-86.69684A18.701,18.701,0,0,0,366.39056,172.35127Z"/><path class="cls-2" d="M92.17412,285.495l-.18339.18324,71.72088,71.7208a31.06643,31.06643,0,0,0,22.22231,9.12447,31.06346,31.06346,0,0,1-21.85554-9.12447Z"/><path class="cls-3" d="M92.17412,285.495l71.90426,71.904a30.73716,30.73716,0,0,0,43.71108,0l71.90426-71.904-93.7598-93.7601Z"/></g></svg>