<svg xmlns="http://www.w3.org/2000/svg" viewBox="0 0 579.51 140.94"><defs><style>.cls-1{fill:#ff5691;}.cls-2{fill:#56b8f4;}.cls-3{fill:#009fef;}.cls-4{fill:#0c3a60;}</style></defs><g id="Layer_2" data-name="Layer 2"><g id="Colour_Logos" data-name="Colour Logos"><circle class="cls-1" cx="71.67" cy="23.11" r="23.11" transform="translate(-0.97 3.27) rotate(-2.6)"/><path class="cls-2" d="M64,66.28a43.9,43.9,0,0,0-61.93,0h0a7.19,7.19,0,0,0,0,10.17l33.33,33.33,36.06-36Z"/><path class="cls-2" d="M71.5,140.94A11.91,11.91,0,0,0,80,137.43l27.58-27.58-.07-.07L79.9,137.43A11.92,11.92,0,0,1,71.5,140.94Z"/><path class="cls-2" d="M140.89,66.28h0a43.79,43.79,0,0,0-61.94,0L71.5,73.73l36.05,36.05,33.34-33.33A7.19,7.19,0,0,0,140.89,66.28Z"/><path class="cls-2" d="M35.44,109.78l-.07.07L63,137.43a12,12,0,0,0,8.55,3.51,11.94,11.94,0,0,1-8.41-3.51Z"/><path class="cls-3" d="M35.44,109.78l27.65,27.65a11.82,11.82,0,0,0,16.81,0l27.65-27.65-36-36Z"/><path class="cls-4" d="M212.79,119.8c5.91,0,8.87-2.81,8.87-7.11,0-5-3.9-7-11.82-9.8l-11.41-4c-16.12-5.64-23.1-14.91-23.24-24.71-.4-17.05,12.36-29.68,36-29.68,9,0,20.28,2.42,27,6.72,4,2.55,6,5.77,6,9.53a9.65,9.65,0,0,1-9.66,9.8c-5.38,0-9.13-2.14-13.57-3.62-3.76-1.21-8.86-2.55-12.75-2.55-5.51,0-8.33,3.22-8.33,7,0,4.43,3.63,7.12,11,9.67l13.7,4.83c16.52,5.78,21.08,15.44,21.22,23.64.26,16.24-12.09,30.21-37.74,30.21-8.72,0-21.08-2.69-29.14-6.85-5.63-3-7.92-6.58-7.92-10.47a9.66,9.66,0,0,1,9.67-9.81c4.16,0,9.67,3,16.79,4.7C202.32,118.46,208.36,119.8,212.79,119.8Z"/><path class="cls-4" d="M258.18,47.7a11.08,11.08,0,1,1,11.15,11.14A11.09,11.09,0,0,1,258.18,47.7ZM279,133.1c0,3.49-1.74,5.24-5.1,5.24H265q-5.23,0-5.24-5.24V75.76a9.6,9.6,0,1,1,19.2,0Z"/><path class="cls-4" d="M340.76,76.57A9.23,9.23,0,0,1,331.5,86H318.61v48.61a3.4,3.4,0,0,1-3.76,3.76H303.16a3.4,3.4,0,0,1-3.76-3.76L299.54,86h-1.75a9.27,9.27,0,0,1,0-18.53h1.75v-.68c0-19.47,11.14-29.94,26.32-29.94h7.52c6,0,9.93,5,9.93,10.47s-5,9.81-10.07,9.81h-4.3c-5.9,0-10.33,3.09-10.33,10.34H331.5A9.17,9.17,0,0,1,340.76,76.57Z"/><path class="cls-4" d="M418.51,75.76V133.1c0,3.49-1.75,5.24-5.1,5.24h-8.86c-3.5,0-5.24-1.75-5.24-5.24v-.94a26.47,26.47,0,0,1-18.8,7.52c-19.34,0-35.85-16.38-35.85-36.93,0-20.27,16.51-36.66,35.85-36.66a28.68,28.68,0,0,1,19.2,6.72,9.62,9.62,0,0,1,18.8,3Zm-19.2,27a18,18,0,0,0-36,0,18,18,0,1,0,36,0Z"/><path class="cls-4" d="M435.16,128.53a11.08,11.08,0,1,1,11.15,11.15A11.09,11.09,0,0,1,435.16,128.53Z"/><path class="cls-4" d="M472.89,47.7A11.08,11.08,0,1,1,484,58.84,11.09,11.09,0,0,1,472.89,47.7Zm20.82,85.4c0,3.49-1.75,5.24-5.1,5.24h-8.87q-5.24,0-5.23-5.24V75.76a9.6,9.6,0,1,1,19.2,0Z"/><path class="cls-4" d="M579.51,46.22v55.46c0,21.75-16.52,38-36.79,38a36.8,36.8,0,0,1,0-73.59A28.1,28.1,0,0,1,560.31,72V46.22a9.21,9.21,0,0,1,9.53-9.4C575.21,36.82,579.51,40.58,579.51,46.22Zm-19.2,56.53a18,18,0,1,0-18,18.13A18,18,0,0,0,560.31,102.75Z"/></g></g></svg>